<svg xmlns="http://www.w3.org/2000/svg" width="400" height="500" viewBox="0 0 400 500">
  <defs>
    <linearGradient id="glassGrad" gradientUnits="userSpaceOnUse" x1="0" y1="26" x2="0" y2="474">
      <stop offset="0%" stop-color="#FFFFFF"/>
      <stop offset="100%" stop-color="#A2D3F5"/>
    </linearGradient>
    <filter id="bevel" x="0" y="0" width="200%" height="200%">
      <feGaussianBlur in="SourceAlpha" stdDeviation="1" result="blur"/>
      <feSpecularLighting in="blur" surfaceScale="1" specularConstant="0.5" specularExponent="15" lighting-color="#ffffff" result="specOut">
        <fePointLight x="-5000" y="-10000" z="20000"/>
      </feSpecularLighting>
      <feComposite in="specOut" in2="SourceAlpha" operator="in" result="specOut"/>
      <feComposite in="SourceGraphic" in2="specOut" operator="arithmetic" k1="1" k2="0" k3="1" k4="0"/>
    </filter>
    <filter id="dropShadow" x="-20%" y="-20%" width="140%" height="140%">
      <feDropShadow dx="0" dy="4" stdDeviation="4" flood-color="#000000" flood-opacity="0.2"/>
    </filter>
    <radialGradient id="aoGrad" cx="0.5" cy="0.5" r="0.5">
      <stop offset="0%" stop-color="#000000" stop-opacity="0"/>
      <stop offset="100%" stop-color="#000000" stop-opacity="0.1"/>
    </radialGradient>
  </defs>

  <!-- Outer frame -->
  <rect x="20" y="20" width="360" height="460" fill="none" stroke="#888888" stroke-width="2"/>
  <rect x="24" y="24" width="352" height="452" fill="none" stroke="#888888" stroke-width="2"/>

  <!-- Inner panel frames -->
  <rect x="24" y="24" width="176" height="452" fill="none" stroke="#CCCCCC" stroke-width="2"/>
  <rect x="200" y="24" width="176" height="452" fill="none" stroke="#CCCCCC" stroke-width="2"/>

  <!-- Glass panes -->
  <rect x="26" y="26" width="172" height="448" fill="url(#glassGrad)" filter="url(#bevel)"/>
  <rect x="202" y="26" width="172" height="448" fill="url(#glassGrad)" filter="url(#bevel)"/>

  <!-- Track with drop-shadow -->
  <g filter="url(#dropShadow)">
    <rect x="20" y="480" width="360" height="20" fill="#777777"/>
    <rect x="20" y="484" width="360" height="4" fill="#666666"/>
  </g>

  <!-- Flush recessed handle on operable panel -->
  <rect x="200" y="266" width="8" height="40" rx="2" fill="#555555"/>

  <!-- Slide‑left arrow -->
  <polygon points="220,460 200,470 200,450" fill="#555555"/>

  <!-- Weather‑stripping grooves -->
  <line x1="26" y1="26" x2="374" y2="26" stroke="#999999" stroke-width="1" stroke-dasharray="2,2"/>
  <line x1="26" y1="476" x2="374" y2="476" stroke="#999999" stroke-width="1" stroke-dasharray="2,2"/>
  <line x1="26" y1="26" x2="26" y2="476" stroke="#999999" stroke-width="1" stroke-dasharray="2,2"/>
  <line x1="374" y1="26" x2="374" y2="476" stroke="#999999" stroke-width="1" stroke-dasharray="2,2"/>

  <!-- Glazing beads around each panel -->
  <rect x="26" y="26" width="172" height="4" fill="#BBBBBB"/>
  <rect x="26" y="470" width="172" height="4" fill="#BBBBBB"/>
  <rect x="26" y="26" width="4" height="448" fill="#BBBBBB"/>
  <rect x="194" y="26" width="4" height="448" fill="#BBBBBB"/>
  <rect x="202" y="26" width="172" height="4" fill="#BBBBBB"/>
  <rect x="202" y="470" width="172" height="4" fill="#BBBBBB"/>
  <rect x="202" y="26" width="4" height="448" fill="#BBBBBB"/>
  <rect x="370" y="26" width="4" height="448" fill="#BBBBBB"/>

  <!-- Ambient‑occlusion shading -->
  <ellipse cx="26" cy="26" rx="30" ry="30" fill="url(#aoGrad)"/>
  <ellipse cx="374" cy="26" rx="30" ry="30" fill="url(#aoGrad)"/>
  <ellipse cx="26" cy="474" rx="30" ry="30" fill="url(#aoGrad)"/>
  <ellipse cx="374" cy="474" rx="30" ry="30" fill="url(#aoGrad)"/>
</svg>
